<?xml version="1.0" encoding="utf-8"?>
<!-- Generator: Adobe Illustrator 16.0.0, SVG Export Plug-In . SVG Version: 6.00 Build 0)  -->
<!DOCTYPE svg PUBLIC "-//W3C//DTD SVG 1.1//EN" "http://www.w3.org/Graphics/SVG/1.1/DTD/svg11.dtd">
<svg version="1.1" id="Layer_1" xmlns="http://www.w3.org/2000/svg" xmlns:xlink="http://www.w3.org/1999/xlink" x="0px" y="0px"
	 width="172px" height="48px" viewBox="0 0 172 48" enable-background="new 0 0 172 48" xml:space="preserve">
<g>
	<g>
		<path fill="#00B5DC" d="M21.575,15.501c-0.973,0.977-1.87,2.03-2.679,3.16c-0.771,1.068-1.457,2.192-2.052,3.359
			c1.407,0.715,2.747,1.562,4.009,2.535c1.22,0.938,1.691,2.498,1.301,3.899c1.203-4.019,3.748-7.529,7.185-9.894
			c-0.611,0.403-1.322,0.618-2.044,0.618c-0.715,0-1.44-0.21-2.075-0.649C23.911,17.629,22.693,16.615,21.575,15.501"/>
		<path fill="#FFFFFF" d="M22.997,28.706l-1.69-0.486c0.308-1.104-0.082-2.27-0.989-2.969c-1.222-0.939-2.524-1.762-3.872-2.446
			l-0.786-0.399l0.401-0.785c0.619-1.214,1.333-2.382,2.123-3.475c0.822-1.148,1.754-2.248,2.769-3.266l0.621-0.623l0.624,0.622
			c1.082,1.079,2.268,2.064,3.521,2.926c0.925,0.64,2.19,0.646,3.136,0.022l0.983,1.46C26.572,21.532,24.143,24.877,22.997,28.706z
			 M18.035,21.656c1.163,0.643,2.288,1.38,3.355,2.2c0.465,0.359,0.847,0.791,1.135,1.274c0.96-1.928,2.233-3.684,3.762-5.187
			c-0.557-0.127-1.088-0.36-1.567-0.692c-1.094-0.751-2.142-1.593-3.121-2.506c-0.717,0.771-1.382,1.584-1.987,2.428
			C19.04,19.963,18.512,20.796,18.035,21.656z"/>
	</g>
	<g>
		<path fill="#81BC40" d="M22.151,2.556c0.384,1.401-0.083,2.962-1.306,3.899c-1.261,0.969-2.602,1.813-4.007,2.528
			c0.627,1.23,1.354,2.408,2.174,3.528c0.782,1.064,1.636,2.068,2.563,2.989c1.118-1.115,2.336-2.129,3.649-3.026
			c0.63-0.437,1.355-0.646,2.072-0.646c0.72,0,1.432,0.211,2.04,0.614C25.89,10.061,23.34,6.553,22.151,2.556"/>
		<path fill="#FFFFFF" d="M21.576,16.742l-0.621-0.618c-0.936-0.93-1.828-1.97-2.652-3.091c-0.852-1.164-1.609-2.393-2.249-3.651
			l-0.399-0.783L16.44,8.2c1.357-0.692,2.661-1.513,3.869-2.442c0.909-0.697,1.298-1.861,0.995-2.969l1.69-0.483
			c1.131,3.803,3.561,7.146,6.842,9.415l-0.986,1.457c-0.933-0.619-2.211-0.611-3.124,0.021c-1.255,0.858-2.442,1.841-3.529,2.925
			L21.576,16.742z M18.028,9.348c0.504,0.908,1.072,1.795,1.694,2.645c0.591,0.803,1.22,1.563,1.875,2.265
			c0.983-0.918,2.035-1.76,3.132-2.509c0.474-0.328,1.002-0.561,1.56-0.688c-1.535-1.507-2.812-3.263-3.769-5.184
			c-0.29,0.483-0.672,0.917-1.141,1.276C20.323,7.965,19.199,8.701,18.028,9.348z"/>
	</g>
	<g>
		<path fill="#F6871F" d="M16.328,0.663C13.112,3.115,9.16,4.448,5.143,4.448c-0.146,0-0.291,0-0.435-0.004
			C6.16,4.504,7.496,5.431,8.012,6.89c0.532,1.495,0.921,3.03,1.167,4.587c1.362-0.214,2.707-0.539,4.03-0.974
			c1.25-0.417,2.461-0.924,3.63-1.517c-0.716-1.409-1.302-2.877-1.751-4.408C14.648,3.101,15.188,1.566,16.328,0.663"/>
		<path fill="#FFFFFF" d="M8.445,12.482l-0.137-0.869c-0.236-1.505-0.615-2.996-1.126-4.429C6.799,6.101,5.815,5.37,4.671,5.322
			l0.068-1.758c0.133,0.005,0.269,0.005,0.403,0.004c3.819,0,7.603-1.281,10.652-3.606l1.08,1.389
			c-0.899,0.712-1.269,1.88-0.943,2.975c0.429,1.462,0.998,2.895,1.692,4.26l0.399,0.785L17.236,9.77
			c-1.213,0.615-2.476,1.144-3.75,1.568c-1.367,0.448-2.77,0.788-4.171,1.008L8.445,12.482z M7.98,5.116
			C8.35,5.54,8.645,6.04,8.841,6.597c0.446,1.254,0.799,2.55,1.051,3.862c1.023-0.199,2.043-0.464,3.041-0.792
			c0.92-0.306,1.835-0.67,2.729-1.087c-0.568-1.217-1.044-2.476-1.419-3.754c-0.167-0.562-0.221-1.136-0.173-1.694
			C12.165,4.123,10.1,4.795,7.98,5.116z"/>
	</g>
	<g>
		<path fill="#EE303D" d="M1.104,9.391c1.387,3.958,1.387,8.293,0.008,12.223c0.507-1.361,1.799-2.349,3.346-2.388
			c0.228-0.005,0.458-0.007,0.686-0.007c1.359,0,2.708,0.108,4.039,0.317c0.218-1.363,0.32-2.745,0.314-4.132
			c-0.003-1.321-0.113-2.628-0.317-3.923c-1.324,0.206-2.669,0.315-4.019,0.315c-0.239,0-0.473,0-0.715-0.012
			C2.908,11.741,1.61,10.754,1.104,9.391"/>
		<path fill="#FFFFFF" d="M1.936,21.92l-1.654-0.599c1.314-3.743,1.311-7.876-0.008-11.64l1.655-0.598
			c0.4,1.074,1.397,1.79,2.542,1.82c0.243,0.011,0.472,0.011,0.69,0.011c1.282,0,2.587-0.103,3.882-0.305l0.868-0.135l0.136,0.867
			c0.215,1.353,0.324,2.717,0.328,4.058c0.006,1.449-0.104,2.887-0.325,4.274L9.911,20.54l-0.867-0.137
			c-1.516-0.239-3.052-0.336-4.567-0.3C3.334,20.134,2.335,20.847,1.936,21.92z M2.756,12.304c0.355,2.12,0.357,4.289,0.004,6.404
			c0.52-0.22,1.085-0.346,1.674-0.361c1.334-0.032,2.667,0.03,3.998,0.195c0.126-1.025,0.188-2.076,0.184-3.135
			c-0.002-0.969-0.065-1.953-0.187-2.935c-1.347,0.166-2.676,0.252-4.024,0.191C3.827,12.647,3.269,12.522,2.756,12.304z"/>
	</g>
	<g>
		<path fill="#B41E8E" d="M9.182,19.535L9.182,19.535c-0.245,1.559-0.636,3.093-1.169,4.594c-0.518,1.455-1.854,2.377-3.307,2.436
			c0.14,0,0.278,0,0.418,0c4.042,0,8.003,1.334,11.201,3.778c-1.134-0.901-1.674-2.442-1.235-3.921
			c0.453-1.525,1.04-2.998,1.754-4.401c-1.227-0.625-2.509-1.153-3.828-1.577C11.756,20.043,10.48,19.736,9.182,19.535"/>
		<path fill="#FFFFFF" d="M15.791,31.043c-3.035-2.32-6.822-3.6-10.667-3.6l-0.418,0.002L4.67,25.688
			c1.144-0.049,2.131-0.775,2.514-1.854C7.701,22.382,8.08,20.89,8.313,19.4l0.135-0.868l0.868,0.134
			c1.307,0.203,2.642,0.519,3.966,0.939c1.357,0.435,2.688,0.984,3.961,1.631l0.784,0.399l-0.397,0.783
			c-0.689,1.354-1.258,2.784-1.695,4.252c-0.326,1.1,0.043,2.27,0.94,2.984L15.791,31.043z M7.981,25.896
			c2.125,0.318,4.19,0.988,6.092,1.979c-0.049-0.561,0.006-1.139,0.173-1.706c0.382-1.284,0.858-2.538,1.421-3.744
			c-0.95-0.442-1.929-0.827-2.92-1.145c-0.95-0.302-1.905-0.545-2.849-0.729c-0.251,1.303-0.605,2.6-1.056,3.87
			C8.645,24.977,8.35,25.475,7.981,25.896z"/>
	</g>
	<g>
		<path fill="#D36226" d="M22.151,2.559c-0.383-1.284-1.31-2.149-2.405-2.507c-1.167-0.381-2.44-0.134-3.418,0.609
			c-1.14,0.906-1.68,2.44-1.241,3.917c0.448,1.53,1.035,2.999,1.751,4.408c1.405-0.717,2.745-1.562,4.007-2.531
			C22.068,5.515,22.541,3.957,22.151,2.559 M20.097,4.006c-0.267,0.815-1.144,1.261-1.962,0.996
			c-0.817-0.27-1.258-1.146-0.993-1.964c0.267-0.816,1.147-1.261,1.961-0.993C19.917,2.31,20.363,3.188,20.097,4.006"/>
		<path fill="#FFFFFF" d="M16.454,10.17l-0.399-0.786c-0.747-1.468-1.357-3.001-1.812-4.559c-0.53-1.783,0.072-3.689,1.537-4.853
			c1.227-0.934,2.836-1.215,4.239-0.756c1.445,0.471,2.529,1.598,2.975,3.09c0.505,1.812-0.131,3.708-1.613,4.847
			c-1.295,0.994-2.688,1.874-4.143,2.617L16.454,10.17z M18.628,0.753c-0.625,0-1.253,0.216-1.767,0.607
			c-0.885,0.703-1.255,1.872-0.93,2.967c0.342,1.173,0.779,2.331,1.3,3.453c1.074-0.598,2.105-1.276,3.08-2.022
			c0.91-0.7,1.3-1.863,0.994-2.963c-0.273-0.916-0.943-1.616-1.832-1.906C19.2,0.799,18.917,0.753,18.628,0.753z M18.618,5.958
			c-0.255,0-0.51-0.041-0.754-0.119c-1.274-0.421-1.972-1.798-1.559-3.073c0.33-1.005,1.259-1.679,2.314-1.679
			c0.258,0,0.513,0.041,0.759,0.122c1.272,0.415,1.971,1.792,1.556,3.07C20.605,5.284,19.674,5.958,18.618,5.958z M18.619,2.847
			c-0.292,0-0.551,0.186-0.641,0.464c-0.114,0.354,0.08,0.738,0.433,0.855c0.065,0.021,0.136,0.032,0.208,0.032
			c0.293,0,0.552-0.188,0.643-0.466c0.115-0.354-0.078-0.735-0.431-0.851C18.761,2.858,18.69,2.847,18.619,2.847z"/>
	</g>
	<g>
		<path fill="#008355" d="M29.337,12.443c-1.213-0.803-2.838-0.842-4.111,0.031c-1.314,0.897-2.535,1.911-3.652,3.026
			c1.118,1.114,2.335,2.128,3.646,3.028c0.635,0.438,1.36,0.649,2.077,0.649c0.721,0,1.432-0.215,2.042-0.618
			c1.02-0.704,1.632-1.8,1.636-3.052C30.976,14.251,30.35,13.145,29.337,12.443 M28.776,15.977
			c-0.266,0.816-1.144,1.262-1.959,0.995c-0.817-0.264-1.261-1.144-0.995-1.963c0.266-0.816,1.146-1.26,1.964-0.993
			C28.598,14.286,29.042,15.162,28.776,15.977"/>
		<path fill="#FFFFFF" d="M27.297,20.058c-0.926,0-1.816-0.279-2.578-0.806c-1.338-0.917-2.604-1.971-3.766-3.128l-0.625-0.622
			l0.625-0.623c1.161-1.158,2.431-2.21,3.777-3.129c0.759-0.521,1.647-0.797,2.569-0.797c0.901,0,1.773,0.262,2.523,0.759
			c1.298,0.897,2.034,2.279,2.034,3.798c-0.004,1.519-0.74,2.896-2.018,3.778C29.067,19.794,28.194,20.058,27.297,20.058z
			 M22.843,15.501c0.903,0.839,1.867,1.61,2.875,2.303c0.924,0.64,2.188,0.647,3.136,0.022c0.792-0.547,1.239-1.375,1.243-2.32
			c0-0.931-0.461-1.785-1.262-2.339c-0.898-0.595-2.186-0.602-3.111,0.033C24.711,13.892,23.746,14.662,22.843,15.501z
			 M27.299,17.93c-0.256,0-0.511-0.041-0.756-0.122c-0.616-0.2-1.119-0.631-1.415-1.213c-0.293-0.579-0.344-1.239-0.144-1.859
			c0.328-1.004,1.259-1.678,2.315-1.678c0.256,0,0.513,0.04,0.759,0.121c1.273,0.424,1.968,1.8,1.554,3.071
			C29.284,17.254,28.355,17.93,27.299,17.93z M27.3,14.817c-0.293,0-0.551,0.187-0.642,0.464c-0.055,0.172-0.042,0.357,0.041,0.519
			c0.082,0.161,0.22,0.279,0.39,0.335c0.364,0.119,0.739-0.085,0.852-0.432c0.116-0.353-0.079-0.737-0.432-0.853
			C27.442,14.829,27.371,14.817,27.3,14.817z"/>
	</g>
	<g>
		<path fill="#4D2682" d="M20.851,24.555c-1.26-0.973-2.599-1.819-4.004-2.535c-0.716,1.406-1.305,2.876-1.756,4.401
			c-0.439,1.479,0.098,3.019,1.238,3.921c0.972,0.742,2.172,0.957,3.24,0.67c1.192-0.318,2.2-1.277,2.583-2.559
			C22.543,27.059,22.074,25.493,20.851,24.555 M20.09,27.932c-0.266,0.819-1.145,1.262-1.961,0.992
			c-0.815-0.266-1.26-1.14-0.992-1.955c0.269-0.816,1.146-1.264,1.958-0.998C19.908,26.236,20.356,27.118,20.09,27.932"/>
		<path fill="#FFFFFF" d="M18.632,32.016C18.631,32.016,18.631,32.016,18.632,32.016c-1.009,0-2.017-0.347-2.837-0.973
			c-1.477-1.174-2.08-3.082-1.548-4.874c0.463-1.56,1.074-3.088,1.815-4.546l0.398-0.786l0.784,0.399
			c1.447,0.736,2.842,1.618,4.144,2.621c1.483,1.141,2.115,3.038,1.61,4.834c-0.467,1.559-1.692,2.767-3.204,3.17
			C19.419,31.962,19.027,32.016,18.632,32.016z M17.237,23.225c-0.519,1.118-0.956,2.273-1.303,3.446
			c-0.327,1.101,0.042,2.269,0.941,2.984c0.509,0.388,1.122,0.599,1.756,0.599l0,0c0.24,0,0.477-0.031,0.707-0.093
			c0.928-0.248,1.682-1,1.969-1.961c0.301-1.068-0.097-2.263-0.994-2.949C19.337,24.498,18.306,23.818,17.237,23.225z
			 M18.618,29.882c-0.26,0-0.517-0.038-0.765-0.122c-0.615-0.197-1.117-0.628-1.411-1.21c-0.294-0.579-0.344-1.237-0.14-1.856
			c0.33-1.002,1.259-1.678,2.314-1.678c0.255,0,0.507,0.039,0.751,0.117c1.278,0.424,1.976,1.797,1.56,3.073
			C20.601,29.209,19.672,29.882,18.618,29.882z M18.616,26.771c-0.292,0-0.551,0.19-0.643,0.472
			c-0.057,0.171-0.042,0.354,0.038,0.511c0.081,0.161,0.218,0.276,0.389,0.332c0.377,0.127,0.741-0.081,0.854-0.428
			c0.116-0.354-0.078-0.736-0.434-0.854C18.755,26.785,18.686,26.771,18.616,26.771z"/>
	</g>
	<g>
		<path fill="#982246" d="M4.458,19.225c-1.546,0.039-2.839,1.027-3.346,2.388c-0.43,1.209-0.266,2.453,0.492,3.478
			c0.736,0.99,1.853,1.503,3.102,1.479c1.453-0.063,2.79-0.989,3.307-2.442c0.534-1.501,0.925-3.037,1.169-4.594
			C7.626,19.286,6.048,19.183,4.458,19.225 M6.021,23.365c-0.267,0.814-1.144,1.263-1.958,0.997
			c-0.818-0.269-1.261-1.147-0.995-1.962c0.267-0.817,1.144-1.261,1.958-0.995C5.842,21.671,6.286,22.552,6.021,23.365"/>
		<path fill="#FFFFFF" d="M4.623,27.451c-1.521,0-2.845-0.652-3.725-1.834c-0.92-1.244-1.144-2.81-0.615-4.299
			c0.657-1.763,2.286-2.925,4.153-2.972c1.634-0.044,3.284,0.063,4.886,0.32l0.865,0.139l-0.135,0.866
			c-0.252,1.599-0.658,3.198-1.21,4.751c-0.625,1.758-2.233,2.947-4.097,3.026L4.623,27.451z M5.151,20.096
			c-0.223,0-0.446,0.003-0.67,0.009c-1.147,0.029-2.146,0.742-2.545,1.816c-0.329,0.927-0.198,1.874,0.375,2.647
			c0.539,0.724,1.36,1.125,2.312,1.125H4.69c1.124-0.049,2.111-0.781,2.494-1.86c0.415-1.164,0.74-2.356,0.975-3.553
			C7.164,20.158,6.157,20.096,5.151,20.096z M4.542,25.318c-0.255,0-0.508-0.039-0.751-0.118c-1.277-0.42-1.976-1.799-1.559-3.074
			c0.328-1.004,1.257-1.679,2.313-1.679c0.254,0,0.508,0.041,0.753,0.12c1.276,0.417,1.975,1.795,1.56,3.071
			C6.527,24.646,5.596,25.318,4.542,25.318z M4.545,22.207c-0.292,0-0.55,0.187-0.642,0.466c-0.114,0.354,0.08,0.738,0.435,0.855
			c0.335,0.11,0.733-0.09,0.847-0.437c0.115-0.352-0.079-0.735-0.433-0.851C4.686,22.218,4.614,22.207,4.545,22.207z"/>
	</g>
	<g>
		<path fill="#BA141A" d="M8.013,6.89C7.495,5.431,6.16,4.504,4.706,4.444c-1.273-0.035-2.382,0.505-3.1,1.469
			C0.857,6.918,0.675,8.168,1.104,9.396c0.506,1.358,1.802,2.345,3.344,2.387c0.237,0.012,0.474,0.014,0.715,0.014
			c1.347,0,2.692-0.111,4.015-0.321C8.933,9.92,8.543,8.387,8.013,6.89 M6.03,8.582C5.763,9.396,4.888,9.841,4.073,9.576
			c-0.82-0.265-1.262-1.143-0.996-1.967c0.27-0.81,1.143-1.255,1.962-0.989C5.856,6.89,6.298,7.762,6.03,8.582"/>
		<path fill="#FFFFFF" d="M5.163,12.677c-0.255,0-0.505-0.003-0.755-0.014c-1.85-0.052-3.477-1.212-4.129-2.959
			C-0.249,8.19-0.02,6.624,0.901,5.387C1.764,4.228,3.11,3.562,4.592,3.562L4.73,3.564c1.877,0.078,3.485,1.268,4.111,3.031
			c0.548,1.551,0.954,3.147,1.204,4.745l0.138,0.869l-0.869,0.137C7.926,12.566,6.53,12.677,5.163,12.677z M4.592,5.321
			c-0.934,0-1.744,0.396-2.28,1.117C1.737,7.21,1.603,8.157,1.935,9.106c0.393,1.054,1.392,1.768,2.538,1.798
			c0.239,0.011,0.463,0.013,0.69,0.013c0.984,0,1.986-0.062,2.991-0.185C7.92,9.537,7.595,8.345,7.183,7.182
			C6.799,6.101,5.813,5.37,4.67,5.322L4.592,5.321z M4.553,10.532c-0.255,0-0.508-0.04-0.752-0.12
			c-0.617-0.198-1.119-0.627-1.414-1.204c-0.297-0.582-0.35-1.246-0.146-1.87c0.333-1.005,1.264-1.675,2.316-1.675
			c0.255,0,0.508,0.041,0.752,0.119c1.277,0.422,1.973,1.8,1.557,3.073C6.539,9.857,5.609,10.532,4.553,10.532z M4.557,7.423
			c-0.294,0-0.553,0.186-0.646,0.464c-0.055,0.171-0.04,0.357,0.043,0.521c0.081,0.159,0.219,0.277,0.389,0.331
			c0.358,0.117,0.738-0.086,0.851-0.431c0.117-0.36-0.072-0.734-0.432-0.853C4.698,7.434,4.627,7.423,4.557,7.423z"/>
	</g>
	<path fill="#00B5DC" d="M21.575,15.501c-0.973,0.977-1.87,2.03-2.679,3.16c-0.771,1.068-1.457,2.192-2.052,3.359
		c1.407,0.715,2.747,1.562,4.009,2.535c1.22,0.938,1.691,2.498,1.301,3.899c1.203-4.019,3.748-7.529,7.185-9.894
		c-0.611,0.403-1.322,0.618-2.044,0.618c-0.715,0-1.44-0.21-2.075-0.649C23.911,17.629,22.693,16.615,21.575,15.501"/>
	<path fill="#81BC40" d="M22.151,2.556c0.384,1.401-0.083,2.962-1.306,3.899c-1.261,0.969-2.602,1.813-4.007,2.528
		c0.627,1.23,1.354,2.408,2.174,3.528c0.782,1.064,1.636,2.068,2.563,2.989c1.118-1.115,2.336-2.129,3.649-3.026
		c0.63-0.437,1.355-0.646,2.072-0.646c0.72,0,1.432,0.211,2.04,0.614C25.89,10.061,23.34,6.553,22.151,2.556"/>
	<path fill="#F6871F" d="M16.328,0.663C13.112,3.115,9.16,4.448,5.143,4.448c-0.146,0-0.291,0-0.435-0.004
		C6.16,4.504,7.496,5.431,8.012,6.89c0.532,1.495,0.921,3.03,1.167,4.587c1.362-0.214,2.707-0.539,4.03-0.974
		c1.25-0.417,2.461-0.924,3.63-1.517c-0.716-1.409-1.302-2.877-1.751-4.408C14.648,3.101,15.188,1.566,16.328,0.663"/>
	<path fill="#EE303D" d="M1.104,9.391c1.387,3.958,1.387,8.293,0.008,12.223c0.507-1.361,1.799-2.349,3.346-2.388
		c0.228-0.005,0.458-0.007,0.686-0.007c1.359,0,2.708,0.108,4.039,0.317c0.218-1.363,0.32-2.745,0.314-4.132
		c-0.003-1.321-0.113-2.628-0.317-3.923c-1.324,0.206-2.669,0.315-4.019,0.315c-0.239,0-0.473,0-0.715-0.012
		C2.908,11.741,1.61,10.754,1.104,9.391"/>
	<path fill="#B41E8E" d="M9.182,19.535L9.182,19.535c-0.245,1.559-0.636,3.093-1.169,4.594c-0.518,1.455-1.854,2.377-3.307,2.436
		c0.14,0,0.278,0,0.418,0c4.042,0,8.003,1.334,11.201,3.778c-1.134-0.901-1.674-2.442-1.235-3.921
		c0.453-1.525,1.04-2.998,1.754-4.401c-1.227-0.625-2.509-1.153-3.828-1.577C11.756,20.043,10.48,19.736,9.182,19.535"/>
	<path fill="#D36226" d="M22.151,2.559c-0.383-1.284-1.31-2.149-2.405-2.507c-1.167-0.381-2.44-0.134-3.418,0.609
		c-1.14,0.906-1.68,2.44-1.241,3.917c0.448,1.53,1.035,2.999,1.751,4.408c1.405-0.717,2.745-1.562,4.007-2.531
		C22.068,5.515,22.541,3.957,22.151,2.559 M20.097,4.006c-0.267,0.815-1.144,1.261-1.962,0.996c-0.817-0.27-1.258-1.146-0.993-1.964
		c0.267-0.816,1.147-1.261,1.961-0.993C19.917,2.31,20.363,3.188,20.097,4.006"/>
	<path fill="#008355" d="M29.337,12.443c-1.213-0.803-2.838-0.842-4.111,0.031c-1.314,0.897-2.535,1.911-3.652,3.026
		c1.118,1.114,2.335,2.128,3.646,3.028c0.635,0.438,1.36,0.649,2.077,0.649c0.721,0,1.432-0.215,2.042-0.618
		c1.02-0.704,1.632-1.8,1.636-3.052C30.976,14.251,30.35,13.145,29.337,12.443 M28.776,15.977c-0.266,0.816-1.144,1.262-1.959,0.995
		c-0.817-0.264-1.261-1.144-0.995-1.963c0.266-0.816,1.146-1.26,1.964-0.993C28.598,14.286,29.042,15.162,28.776,15.977"/>
	<path fill="#4D2682" d="M20.851,24.555c-1.26-0.973-2.599-1.819-4.004-2.535c-0.716,1.406-1.305,2.876-1.756,4.401
		c-0.439,1.479,0.098,3.019,1.238,3.921c0.972,0.742,2.172,0.957,3.24,0.67c1.192-0.318,2.2-1.277,2.583-2.559
		C22.543,27.059,22.074,25.493,20.851,24.555 M20.09,27.932c-0.266,0.819-1.145,1.262-1.961,0.992
		c-0.815-0.266-1.26-1.14-0.992-1.955c0.269-0.816,1.146-1.264,1.958-0.998C19.908,26.236,20.356,27.118,20.09,27.932"/>
	<path fill="#982246" d="M4.458,19.225c-1.546,0.039-2.839,1.027-3.346,2.388c-0.43,1.209-0.266,2.453,0.492,3.478
		c0.736,0.99,1.853,1.503,3.102,1.479c1.453-0.063,2.79-0.989,3.307-2.442c0.534-1.501,0.925-3.037,1.169-4.594
		C7.626,19.286,6.048,19.183,4.458,19.225 M6.021,23.365c-0.267,0.814-1.144,1.263-1.958,0.997
		c-0.818-0.269-1.261-1.147-0.995-1.962c0.267-0.817,1.144-1.261,1.958-0.995C5.842,21.671,6.286,22.552,6.021,23.365"/>
	<path fill="#BA141A" d="M8.013,6.89C7.495,5.431,6.16,4.504,4.706,4.444c-1.273-0.035-2.382,0.505-3.1,1.469
		C0.857,6.918,0.675,8.168,1.104,9.396c0.506,1.358,1.802,2.345,3.344,2.387c0.237,0.012,0.474,0.014,0.715,0.014
		c1.347,0,2.692-0.111,4.015-0.321C8.933,9.92,8.543,8.387,8.013,6.89 M6.03,8.582C5.763,9.396,4.888,9.841,4.073,9.576
		c-0.82-0.265-1.262-1.143-0.996-1.967c0.27-0.81,1.143-1.255,1.962-0.989C5.856,6.89,6.298,7.762,6.03,8.582"/>
	<path d="M41.502,7.784v6.914h2.778c3.221,0,5.968-0.134,5.968-3.388c0-2.78-1.356-3.526-6.069-3.526H41.502z M44.959,6.021
		c4.982,0,7.899,0.848,7.899,5.186c0,4.307-3.017,5.154-7.899,5.154h-3.457v7.422c0,2.271,0,2.305,1.388,2.305h0.679v1.121h-6.713
		v-1.121h0.679c0.61,0,1.287,0.07,1.322-0.607c0.033-0.508,0.067-1.152,0.067-1.696V9.039c0-1.425,0.035-1.9-1.458-1.9h-0.609V6.021
		H44.959z"/>
	<path d="M58.212,16.292c0,0.611-0.066,1.22-0.136,1.694c1.528-3.219,2.612-4.847,3.935-4.847c1.118,0,1.593,0.27,2.338,0.611
		l-0.815,2.102c-0.71-0.478-0.982-0.951-1.659-0.951c-1.018,0-2.136,1.863-3.664,5.017v3.765c0,2.271-0.136,2.404,1.223,2.404h0.474
		v1.121h-5.696v-1.121h0.511c1.353,0,1.183-0.133,1.183-2.1V16.8c0-1.966,0.07-2.102-1.15-2.102h-0.543v-1.119h3.999V16.292z"/>
	<path d="M71.366,26.088c2.847,0,4.273-1.966,4.273-5.93c0-3.696-1.492-5.493-4.136-5.493c-2.849,0-4.409,2.035-4.409,6.035
		C67.094,24.022,68.519,26.088,71.366,26.088 M71.571,13.073c4.135,0,6.677,2.983,6.677,7.185c0,4.309-2.643,7.426-6.949,7.426
		c-4.476,0-6.813-3.153-6.813-7.322C64.485,15.884,67.502,13.073,71.571,13.073"/>
	<path d="M90.283,16.327c-0.543-0.474-2.61-1.662-4.237-1.662c-1.934,0-3.424,1.932-3.424,5.866c0,3.76,1.39,5.595,3.389,5.595
		c1.56,0,2.882-0.714,4.272-1.63V16.327z M90.352,25.782c-0.884,0.884-2.746,1.936-4.815,1.936c-3.289,0-5.525-3.018-5.525-7.222
		c0-4.678,2.542-7.422,5.831-7.422c1.764,0,3.152,0.709,4.442,1.898V8.666c0-1.255-0.07-1.527-1.153-1.527h-0.576V6.021h4.033
		v17.663c0,2.302-0.135,2.404,1.221,2.404h0.51v1.121h-4.033L90.352,25.782z"/>
	<path d="M100.589,8.02c0,0.848-0.713,1.559-1.595,1.559c-0.88,0-1.559-0.711-1.559-1.559c0-0.881,0.679-1.593,1.559-1.593
		C99.876,6.426,100.589,7.139,100.589,8.02 M100.148,23.714c0,2.275-0.139,2.374,1.222,2.374h0.506v1.121h-5.729v-1.121h0.511
		c1.356,0,1.188-0.133,1.188-2.374V15.58c0-0.678-0.137-0.882-1.087-0.882h-0.61v-1.116h4.002v10.132H100.148z"/>
	<path d="M113.029,16.226c-1.426-1.019-2.915-1.561-4.17-1.561c-2.104,0-3.457,1.866-3.457,5.561c0,3.423,1.221,5.187,3.527,5.187
		c1.283,0,3.014-0.783,4.1-1.663V16.226z M115.335,27.648c0,2.205-0.306,3.967-0.578,4.478c-0.848,1.522-2.542,2.167-5.116,2.167
		c-1.968,0-4.068-0.369-5.865-1.052l0.643-1.931c1.73,0.949,3.425,1.393,5.426,1.393c2.881,0,3.188-1.697,3.188-4.205v-3.425
		c-1.323,1.188-3.018,1.933-4.678,1.933c-3.358,0-5.562-3.018-5.562-6.883c0-4.138,2.31-7.049,5.765-7.049
		c1.729,0,3.558,0.913,4.541,1.864l-0.102-1.358h4.033v1.119h-0.508c-1.354,0-1.187,0.069-1.187,2.34V27.648z"/>
	<path d="M123.369,8.02c0,0.848-0.711,1.559-1.594,1.559s-1.561-0.711-1.561-1.559c0-0.881,0.678-1.593,1.561-1.593
		C122.658,6.426,123.369,7.139,123.369,8.02 M122.928,23.714c0,2.275-0.135,2.374,1.221,2.374h0.51v1.121h-5.729v-1.121h0.51
		c1.354,0,1.185-0.133,1.185-2.374V15.58c0-0.678-0.135-0.882-1.084-0.882h-0.61v-1.116h4v10.132H122.928z"/>
	<path d="M132.794,26.088c2.847,0,4.271-1.966,4.271-5.93c0-3.696-1.49-5.493-4.135-5.493c-2.849,0-4.408,2.035-4.408,6.035
		C128.521,24.022,129.943,26.088,132.794,26.088 M132.995,13.073c4.138,0,6.679,2.983,6.679,7.185c0,4.309-2.645,7.426-6.947,7.426
		c-4.475,0-6.814-3.153-6.814-7.322C125.911,15.884,128.927,13.073,132.995,13.073"/>
	<path d="M151.404,16.158c0-1.085-0.035-1.459-1.019-1.459h-0.712V13.58h4.034v10.104c0,2.271-0.204,2.404,1.187,2.404h0.478v1.121
		h-3.968c0-0.782,0.031-1.427,0.031-1.592c-1.424,1.389-2.914,2.101-5.05,2.101c-4.307,0-4.202-3.052-4.202-5.967v-5.593
		c0-1.052,0-1.459-0.984-1.459h-0.778V13.58h4.067v8.783c0,2.067,0,3.764,2.474,3.764c1.392,0,3.12-0.578,4.442-1.866V16.158z"/>
	<path d="M165.912,16.904h-1.085v-0.442c0-1.155-1.457-1.797-3.253-1.797c-1.526,0-2.576,0.711-2.576,2.035
		c0,2.473,7.424,3.016,7.424,7.188c0,2.301-1.626,3.76-4.781,3.76c-1.015,0-2.744-0.305-4.236-1.018v-2.849h1.084v0.443
		c0,1.22,1.799,1.828,3.289,1.828c1.834,0,2.715-0.812,2.715-1.864c0-2.713-7.426-2.917-7.426-7.186
		c0-2.206,1.763-3.931,4.678-3.931c1.458,0,2.849,0.438,4.169,0.982L165.912,16.904L165.912,16.904z"/>
	<path d="M165.939,39.489h-0.53v-0.208c0-0.551-0.711-0.856-1.586-0.856c-1.388,0-1.644,1.177-0.496,1.692
		c0.44,0.195,0.95,0.433,1.44,0.669c2.27,1.099,1.85,3.802-0.984,3.802c-0.495,0-1.366-0.15-2.096-0.482v-1.354h0.531v0.21
		c0,0.577,0.902,0.867,1.633,0.867c1.547,0,2.021-1.299,0.438-2.092c-0.494-0.244-1.035-0.495-1.55-0.756
		c-1.948-0.972-1.177-3.308,1.166-3.308c0.706,0,1.388,0.213,2.032,0.468v1.349H165.939z"/>
	<path d="M85.144,35.711c0-0.812-0.041-0.85-0.58-0.85h-0.248v-0.529h1.952v4.291c0.66-0.469,1.455-0.952,2.596-0.952
		c1.388,0,2.395,1.239,2.395,3.312c0,2.142-0.989,3.635-2.776,3.635c-0.959,0-1.637-0.354-2.247-0.951l0.033,0.709h-1.952v-0.531
		h0.248c0.537,0,0.58-0.031,0.58-1.011L85.144,35.711L85.144,35.711z M86.269,43.062c0.479,0.305,1.043,0.795,2.032,0.795
		c1.189,0,1.686-0.847,1.686-2.746c0-1.814-0.461-2.682-1.504-2.682c-0.758,0-1.472,0.305-2.213,0.805V43.062z"/>
	<path d="M93.789,39.204c0,0.285-0.037,0.575-0.066,0.801c0.742-1.526,1.27-2.3,1.918-2.3c0.547,0,0.776,0.132,1.141,0.29
		l-0.396,0.995c-0.297-0.266-0.479-0.447-0.809-0.447c-0.496,0-1.044,0.885-1.786,2.377v1.788c0,1.097,0.036,1.136,0.597,1.136
		h0.229v0.531H91.84v-0.531h0.246c0.549,0,0.579-0.035,0.579-0.996v-3.406c0-0.959-0.032-0.996-0.562-0.996H91.84v-0.529h1.951
		v1.288H93.789z"/>
	<path d="M101.575,43.65c-0.413,0.453-1.291,0.951-2.334,0.951c-1.649,0-2.728-1.465-2.728-3.36c0-2.173,1.176-3.567,2.828-3.567
		c0.99,0,1.87,0.6,2.213,1.014l-0.029-0.771h1.966v0.529h-0.247c-0.561,0-0.598,0.037-0.598,0.852v3.694
		c0,0.802,0.045,0.854,0.598,0.854h0.247v0.531h-1.966L101.575,43.65z M101.525,39.232c-0.498-0.306-1.143-0.803-1.969-0.803
		c-1.141,0-1.771,0.997-1.771,2.812c0,1.674,0.562,2.603,1.718,2.603c0.694,0,1.359-0.285,2.021-0.813V39.232L101.525,39.232z"/>
	<path d="M104.277,38.443v-0.528h1.916c0,0.204,0,0.51-0.035,0.771c0.767-0.625,1.758-1.016,2.598-1.016
		c1.737,0,2.104,1.143,2.104,2.945v2.104c0,1.057,0.06,1.123,0.578,1.123h0.246v0.531h-2.795v-0.531h0.252
		c0.562,0,0.592-0.035,0.592-1.123v-2.332c0-1.06-0.03-1.964-1.307-1.964c-0.611,0-1.467,0.31-2.166,0.839v3.457
		c0,1.088,0.029,1.123,0.583,1.123h0.249v0.531h-2.814v-0.531h0.267c0.662,0,0.595-0.064,0.595-1.123v-3.246
		c0-0.951-0.07-1.029-0.516-1.029H104.277L104.277,38.443z"/>
	<path d="M116.984,43.699c-0.433,0.422-1.34,0.918-2.351,0.918c-1.603,0-2.692-1.434-2.692-3.422c0-2.221,1.24-3.521,2.842-3.521
		c0.861,0,1.542,0.337,2.168,0.9v-2.991c0-0.636-0.078-0.722-0.561-0.722h-0.279v-0.53h1.961v8.377c0,1.08,0.043,1.136,0.594,1.136
		h0.253v0.533h-1.968L116.984,43.699z M116.951,39.217c-0.262-0.227-1.274-0.792-2.065-0.792c-0.938,0-1.67,0.92-1.67,2.784
		c0,1.786,0.677,2.648,1.65,2.648c0.761,0,1.409-0.334,2.085-0.771V39.217z"/>
	<path d="M124.85,43.844h-0.498c-0.707,0-0.795-0.1-0.795-0.813v-8.697h-1.947v0.528h0.38c0.364,0,0.446,0.109,0.446,0.58v8.935
		h2.414V43.844z"/>
	<path d="M128.234,37.674c2.017,0,3.257,1.417,3.257,3.409c0,2.038-1.288,3.519-3.39,3.519c-2.184,0-3.324-1.49-3.324-3.473
		C124.777,39.009,126.252,37.674,128.234,37.674 M128.139,43.844c1.387,0,2.08-0.929,2.08-2.81c0-1.753-0.727-2.609-2.014-2.609
		c-1.393,0-2.15,0.972-2.15,2.864C126.055,42.866,126.749,43.844,128.139,43.844"/>
	<path d="M138.291,44.588c0,1.04-0.146,1.879-0.282,2.113c-0.409,0.729-1.239,1.031-2.495,1.031c-0.955,0-1.98-0.176-2.856-0.494
		l0.313-0.918c0.842,0.451,1.67,0.66,2.646,0.66c1.405,0,1.556-0.804,1.556-1.992v-1.622c-0.648,0.562-1.477,0.911-2.283,0.911
		c-1.637,0-2.711-1.428-2.711-3.26c0-1.963,1.127-3.345,2.809-3.345c0.848,0,1.738,0.435,2.214,0.882l-0.05-0.641h1.967v0.529
		h-0.244c-0.557,0-0.58,0.026-0.58,1.109v5.035H138.291z M137.171,39.168c-0.696-0.48-1.427-0.743-2.036-0.743
		c-1.027,0-1.683,0.888-1.683,2.642c0,1.621,0.592,2.457,1.717,2.457c0.628,0,1.472-0.366,2.002-0.787V39.168z"/>
	<path d="M141.773,42.721c0,1.071-0.071,1.123,0.591,1.123h0.249v0.533h-2.795v-0.533h0.25c0.66,0,0.576-0.064,0.576-1.123v-3.859
		c0-0.317-0.066-0.416-0.529-0.416h-0.297v-0.529h1.955V42.721z"/>
	<path d="M141.986,36.38c0,0.401-0.346,0.735-0.777,0.735s-0.762-0.334-0.762-0.735c0-0.419,0.33-0.755,0.762-0.755
		S141.986,35.961,141.986,36.38"/>
	<path d="M154.089,42.721c0,1.071-0.062,1.123,0.603,1.123h0.246v0.533h-2.795v-0.533h0.248c0.661,0,0.578-0.064,0.578-1.123v-3.859
		c0-0.317-0.068-0.416-0.527-0.416h-0.299v-0.529h1.946V42.721L154.089,42.721z"/>
	<path d="M154.307,36.38c0,0.401-0.344,0.735-0.771,0.735c-0.435,0-0.765-0.334-0.765-0.735c0-0.419,0.33-0.755,0.765-0.755
		C153.963,35.625,154.307,35.961,154.307,36.38"/>
	<path d="M147.464,39.489h-0.53v-0.208c0-0.551-0.709-0.856-1.586-0.856c-1.389,0-1.645,1.177-0.49,1.692
		c0.436,0.195,0.947,0.433,1.438,0.669c2.265,1.099,1.847,3.802-0.985,3.802c-0.496,0-1.367-0.15-2.096-0.482v-1.354h0.524v0.21
		c0,0.577,0.907,0.867,1.64,0.867c1.548,0,2.02-1.299,0.438-2.092c-0.493-0.244-1.034-0.495-1.549-0.756
		c-1.949-0.972-1.18-3.308,1.16-3.308c0.717,0,1.391,0.213,2.036,0.468V39.489z"/>
	<path d="M148.984,42.336v-3.896h-0.873v-0.523h0.873v-2.119h1.127v2.119h2.649v0.523h-2.649v3.703c0,1.27,0.018,1.701,0.855,1.701
		l0.393,0.006v0.527C149.354,44.939,148.984,44.145,148.984,42.336"/>
	<path d="M160.029,39.489v-0.208c0-0.562-0.574-0.866-1.397-0.866c-1.147,0-2.044,0.894-2.044,2.826
		c0,1.592,0.818,2.616,2.125,2.616c0.643,0,1.201-0.283,1.699-0.575l0.385,0.839c-0.708,0.302-1.375,0.48-2.217,0.48
		c-2.121,0-3.255-1.479-3.255-3.406c0-2.075,1.224-3.473,3.271-3.473c0.859,0,1.533,0.238,2.047,0.418v1.349H160.029z"/>
	<polygon points="168.379,40.109 167.915,40.109 167.915,38.215 167.184,38.215 167.184,37.85 169.111,37.85 169.111,38.215 
		168.379,38.215 	"/>
	<polygon points="170.341,40.109 169.818,38.391 169.818,40.109 169.398,40.109 169.398,37.85 170.066,37.85 170.564,39.527 
		171.059,37.85 171.732,37.85 171.732,40.109 171.32,40.109 171.32,38.391 170.8,40.109 	"/>
</g>
</svg>
